# xmcd database file
#
# Track frame offsets:
# 150
# 12829
# 27265
# 39374
# 51675
# 64487
# 77079
# 87530
# 99490
# 110994
# 123072
# 133648
# 144531
# 156752
# 166896
# 177694
# 189094
# 199919
# 210136
# 222686
# 234667
# 247438
# 258872
# 269456
#
# Disc length: 3738 seconds
#
# Revision: 0
# Processed by: cddbd v1.5.2PL0 Copyright (c) Steve Scherf et al.
# Submitted via: CD-Runner 2006.50
#
DISCID=6a0e9818
DTITLE=Don Gibson - I Love No One But You - The Early Years
DYEAR=1900
DGENRE=Country
TTITLE0=I Lost My Love
TTITLE1=Cloudy Skies
TTITLE2=Automatic Mama
TTITLE3=Why Am I So Lonely
TTITLE4=I Love No One But You
TTITLE5=Carolina Breakdown (instr)
TTITLE6=Wiggle Wag (instr)
TTITLE7=Roses Are Red
TTITLE8=Just Let Me Love You
TTITLE9=Red Lips, White Lies and Blue Hours
TTITLE10=Dark Future
TTITLE11=A Blue Million Tears
TTITLE12=No Shoulder To Cry On
TTITLE13=We're Steppin' Out Tonight
TTITLE14=Sample Kisses
TTITLE15=Let Me Stay In Your Arms
TTITLE16=Walking In The Moonlight
TTITLE17=I Just Love The Way You Tell A Lie
TTITLE18=Waiting Down The Road
TTITLE19=You Cast Me Out Forever More
TTITLE20=Symptoms Of Love
TTITLE21=Many Times I've Waited
TTITLE22=Selfish With Your Kisses
TTITLE23=Ice Cold Heart
EXTD=
EXTT0=
EXTT1=
EXTT2=
EXTT3=
EXTT4=
EXTT5=
EXTT6=
EXTT7=
EXTT8=
EXTT9=
EXTT10=
EXTT11=
EXTT12=
EXTT13=
EXTT14=
EXTT15=
EXTT16=
EXTT17=
EXTT18=
EXTT19=
EXTT20=
EXTT21=
EXTT22=
EXTT23=
PLAYORDER=
